# xmcd
#
# Track frame offsets: 
#        150
#        13199
#        26227
#        46305
#        65483
#        77720
#        92468
#        112650
#        128440
#        145470
#        180050
#        197459
#        211010
#        226424
#        238091
#
# Disc length: 3407 seconds
#
# Revision: 0
# Processed by: cddbd v1.5.2PL0 Copyright (c) Steve Scherf et al.
# Submitted via: ExactAudioCopy v0.99pb4
#
DISCID=b60d4d0f
DTITLE=William Clarke - Tip Of The Top
DYEAR=2011
DGENRE=Blues
TTITLE0=Goin' Steady
TTITLE1=Hot Dog and A Beer
TTITLE2=Chromatic Jump
TTITLE3=Hard Times
TTITLE4=Blowin' The Family Jewels
TTITLE5=Drinkin' Straight Whiskey
TTITLE6=Drinkin' Beer
TTITLE7=Just A Dream
TTITLE8=Take A Walk With Me
TTITLE9=Tribute To George Smith
TTITLE10=Charlie's Blues
TTITLE11=Party Party
TTITLE12=Got My Brand On You
TTITLE13=My Dog Don't Bark
TTITLE14=My Wife Got Mad
EXTD=
EXTT0=
EXTT1=
EXTT2=
EXTT3=
EXTT4=
EXTT5=
EXTT6=
EXTT7=
EXTT8=
EXTT9=
EXTT10=
EXTT11=
EXTT12=
EXTT13=
EXTT14=
PLAYORDER=
